HIERARCHY
ROOT Hips
{
  OFFSET 49.6852 86.7379 5.25639
  CHANNELS 6 Xposition Yposition Zposition Zrotation Xrotation Yrotation
  JOINT spine
  {
    OFFSET 0 6.84637 0.3937
    CHANNELS 3 Zrotation Xrotation Yrotation
    JOINT spine1
    {
      OFFSET 0 9.49621 0
      CHANNELS 3 Zrotation Xrotation Yrotation
      JOINT spine2
      {
        OFFSET 0 9.09909 0
        CHANNELS 3 Zrotation Xrotation Yrotation
        JOINT Neck
        {
          OFFSET 0 23.3612 1.11378
          CHANNELS 3 Zrotation Xrotation Yrotation
          JOINT Head
          {
            OFFSET 0 7.05802 0
            CHANNELS 3 Zrotation Xrotation Yrotation
            End Site
            {
              OFFSET 0 17.0844 -5.63419
            }
          }
        }
        JOINT RightShoulder
        {
          OFFSET -3.83136 9.82631 -0.533491
          CHANNELS 3 Zrotation Xrotation Yrotation
          JOINT RightArm
          {
            OFFSET 0 12.8881 0
            CHANNELS 3 Zrotation Xrotation Yrotation
            JOINT RightArmRoll
            {
              OFFSET 0 6.50616 0
              CHANNELS 3 Zrotation Xrotation Yrotation
              JOINT RightForeArm
              {
                OFFSET 0 18.9501 0
                CHANNELS 3 Zrotation Xrotation Yrotation
                JOINT RightForeArmRoll
                {
                  OFFSET 0 7.30092 0
                  CHANNELS 3 Zrotation Xrotation Yrotation
                  JOINT RightHand
                  {
                    OFFSET 0 14.6514 0
                    CHANNELS 3 Zrotation Xrotation Yrotation
                    End Site
                    {
                      OFFSET 0 0 0
                    }
                  }
                }
              }
            }
          }
        }
        JOINT LeftShoulder
        {
          OFFSET 3.83136 9.82631 -0.533491
          CHANNELS 3 Zrotation Xrotation Yrotation
          JOINT LeftArm
          {
            OFFSET 0 12.8881 0
            CHANNELS 3 Zrotation Xrotation Yrotation
            JOINT LeftArmRoll
            {
              OFFSET 0 6.50617 0
              CHANNELS 3 Zrotation Xrotation Yrotation
              JOINT LeftForeArm
              {
                OFFSET 0 18.9501 0
                CHANNELS 3 Zrotation Xrotation Yrotation
                JOINT LeftForeArmRoll
                {
                  OFFSET 0 7.30092 0
                  CHANNELS 3 Zrotation Xrotation Yrotation
                  JOINT LeftHand
                  {
                    OFFSET 0 14.6514 0
                    CHANNELS 3 Zrotation Xrotation Yrotation
                    End Site
                    {
                      OFFSET 0 0 0
                    }
                  }
                }
              }
            }
          }
        }
      }
    }
  }
  JOINT RightUpLeg
  {
    OFFSET -6.06837 -1.11278 -0.933477
    CHANNELS 3 Zrotation Xrotation Yrotation
    JOINT RightUpLegRoll
    {
      OFFSET 0 17.1796 0
      CHANNELS 3 Zrotation Xrotation Yrotation
      JOINT RightLeg
      {
        OFFSET 0 -21.2743 0
        CHANNELS 3 Zrotation Xrotation Yrotation
        JOINT RightLegRoll
        {
          OFFSET 0 21.3439 0
          CHANNELS 3 Zrotation Xrotation Yrotation
          JOINT RightFoot
          {
            OFFSET 0 17.7652 0
            CHANNELS 3 Zrotation Xrotation Yrotation
            JOINT RightToeBase
            {
              OFFSET 0 14.8508 0
              CHANNELS 3 Zrotation Xrotation Yrotation
              End Site
              {
                OFFSET 0.0062947 7.19213 -0.829005
              }
            }
          }
        }
      }
    }
  }
  JOINT LeftUpLeg
  {
    OFFSET 6.06837 -1.11278 -0.933477
    CHANNELS 3 Zrotation Xrotation Yrotation
    JOINT LeftUpLegRoll
    {
      OFFSET 0 17.1797 0
      CHANNELS 3 Zrotation Xrotation Yrotation
      JOINT LeftLeg
      {
        OFFSET 0 21.2742 0
        CHANNELS 3 Zrotation Xrotation Yrotation
        JOINT LeftLegRoll
        {
          OFFSET 0 21.5412 0
          CHANNELS 3 Zrotation Xrotation Yrotation
          JOINT LeftFoot
          {
            OFFSET 0 17.5679 0
            CHANNELS 3 Zrotation Xrotation Yrotation
            JOINT LeftToeBase
            {
              OFFSET 0 14.8508 0
              CHANNELS 3 Zrotation Xrotation Yrotation
              End Site
              {
                OFFSET -0.0282102 7.19214 -0.829005
              }
            }
          }
        }
      }
    }
  }
}
MOTION
Frames: 12
Frame Time: 0.00208333
46.2451 86.1956 3.41898 2.40374 1.87781 18.0233 2.10977 -1.00578 1.01637 4.22833 2.02087 1.77143 4.21098 3.66303 1.70213 -13.183 1.95949 7.13811 3.71817 14.6725 4.31952 40.9628 -4.48177 -1.3317 169.978 44.1174 -90.9996 1.25262e-005 -5.19322e-005 -9.43979e-006 21.1409 52.5524 -6.8838 -5.63958e-006 -1.2733e-005 -2.99999 8.0289 -4.95074 0.697219 -65.5801 -6.63728 4.38032 -99.1886 50.796 26.4462 1.16947e-006 -5.90995e-007 3.53717e-006 -33.4926 31.6136 7.70036 -2.78393e-006 9.29764e-006 2.99999 -8.03039 -4.9512 -0.697282 179.3 19.8178 -1.22378 180 7.01468e-015 178.623 174.366 26.1487 -178.756 -1.9828e-006 2.18575e-006 0.878656 -28.9856 71.5764 23.8425 8.13649 25.2327 -3.48773 -175.603 18.7938 -2.8129 4.54188e-006 -4.6773e-006 -0.742302 -4.75 -22.4698 -0.479199 1.96685e-006 -3.53242e-006 -0.13593 17.9943 70.5926 -21.7471 -8.1365 25.2327 3.48774 
46.2513 86.1913 3.41128 2.39936 1.87947 18.074 2.11543 -1.01228 1.01755 4.23973 2.00802 1.77581 4.22233 3.65017 1.7063 -13.1023 2.02587 7.19493 3.63198 14.6542 4.39127 41.0511 -4.50415 -1.35848 169.638 44.2226 -90.5983 1.25262e-005 -5.19322e-005 -9.43978e-006 20.9591 52.6239 -6.83075 -5.63958e-006 -1.2733e-005 -2.99999 8.0289 -4.95074 0.697219 -65.5516 -6.6436 4.38264 -99.4055 50.9392 26.28 1.16947e-006 -5.90995e-007 3.53717e-006 -33.4817 31.1406 7.54939 -2.78393e-006 9.29764e-006 2.99999 -8.03039 -4.9512 -0.697282 179.291 19.8122 -1.21776 180 7.01469e-015 178.624 174.369 26.1495 -178.758 -1.9828e-006 2.18575e-006 0.878708 -28.9646 71.5712 23.8333 8.13649 25.2327 -3.48773 -175.623 18.8103 -2.79166 4.54188e-006 -4.6773e-006 -0.743215 -4.74456 -22.4739 -0.478454 1.96685e-006 -3.53242e-006 -0.1378 18.0055 70.5908 -21.7462 -8.1365 25.2327 3.48774 
46.2675 86.1918 3.39791 2.39471 1.88135 18.1244 2.12103 -1.01892 1.01893 4.25102 1.99491 1.78071 4.23355 3.63704 1.71098 -13.0204 2.09263 7.25122 3.54519 14.636 4.46271 41.1416 -4.5263 -1.38528 169.293 44.3234 -90.1952 1.25262e-005 -5.19322e-005 -9.43979e-006 20.7775 52.6935 -6.77696 -5.63958e-006 -1.2733e-005 -2.99999 8.0289 -4.95074 0.697219 -65.5218 -6.64892 4.38435 -99.6281 51.0869 26.1088 1.16947e-006 -5.90995e-007 3.53717e-006 -33.4735 30.657 7.39787 -2.78393e-006 9.29764e-006 2.99999 -8.03039 -4.9512 -0.697282 179.282 19.807 -1.21179 180 7.01469e-015 178.624 174.371 26.1503 -178.759 -1.9828e-006 2.18575e-006 0.878787 -28.9441 71.566 23.8242 8.13649 25.2327 -3.48773 -175.643 18.8273 -2.77136 4.54188e-006 -4.6773e-006 -0.744106 -4.73972 -22.4786 -0.477874 1.96685e-006 -3.53242e-006 -0.139627 18.0172 70.5891 -21.7456 -8.1365 25.2327 3.48774 
46.2766 86.1925 3.39791 2.38989 1.88339 18.1747 2.12659 -1.02565 1.02045 4.26222 1.98161 1.78597 4.24468 3.62372 1.71604 -12.9377 2.15965 7.30714 3.45799 14.6179 4.53393 41.2335 -4.54829 -1.4121 168.946 44.42 -89.7899 1.25262e-005 -5.19322e-005 -9.43978e-006 20.596 52.7617 -6.72259 -5.63958e-006 -1.2733e-005 -2.99999 8.0289 -4.95074 0.697219 -65.4909 -6.65354 4.38563 -99.8543 51.2377 25.9338 1.16947e-006 -5.90995e-007 3.53717e-006 -33.4682 30.1659 7.24662 -2.78393e-006 9.29764e-006 2.99999 -8.03039 -4.9512 -0.697282 179.274 19.8021 -1.20585 180 7.01469e-015 178.625 174.373 26.1511 -178.759 -1.9828e-006 2.18575e-006 0.878883 -28.9237 71.5609 23.8152 8.13649 25.2327 -3.48773 -175.662 18.8445 -2.75171 4.54188e-006 -4.6773e-006 -0.744981 -4.7353 -22.4835 -0.47741 1.96685e-006 -3.53242e-006 -0.141423 18.0292 70.5875 -21.745 -8.1365 25.2327 3.48774 
46.3055 86.2027 3.42248 2.38495 1.88551 18.2248 2.13212 -1.03244 1.02204 4.27338 1.96821 1.79144 4.25577 3.61031 1.72129 -12.8546 2.22681 7.36285 3.37059 14.5998 4.60501 41.3263 -4.57019 -1.43892 168.595 44.5131 -89.3824 1.25262e-005 -5.19322e-005 -9.43979e-006 20.4144 52.8291 -6.66782 -5.63958e-006 -1.2733e-005 -2.99999 8.0289 -4.95074 0.697219 -65.4594 -6.65776 4.38667 -100.082 51.3901 25.756 1.16947e-006 -5.90995e-007 3.53717e-006 -33.4658 29.6703 7.09641 -2.78393e-006 9.29764e-006 2.99999 -8.03039 -4.9512 -0.697282 179.265 19.7973 -1.19993 180 7.01469e-015 178.625 174.376 26.152 -178.76 -1.9828e-006 2.18575e-006 0.87899 -28.9035 71.5558 23.8063 8.13649 25.2327 -3.48773 -175.681 18.862 -2.73244 4.54188e-006 -4.6773e-006 -0.745847 -4.73111 -22.4887 -0.477013 1.96685e-006 -3.53242e-006 -0.143202 18.0415 70.5859 -21.7445 -8.1365 25.2327 3.48774 
46.3113 86.1997 3.40841 2.37999 1.88765 18.2748 2.13765 -1.03924 1.02366 4.28452 1.95478 1.79696 4.26685 3.59686 1.7266 -12.7715 2.29399 7.41853 3.28316 14.5817 4.67606 41.4193 -4.59207 -1.46575 168.243 44.6031 -88.9724 1.25262e-005 -5.19322e-005 -9.43979e-006 20.2327 52.8962 -6.61284 -5.63958e-006 -1.2733e-005 -2.99999 8.0289 -4.95074 0.697219 -65.4278 -6.66188 4.38765 -100.309 51.5429 25.5768 1.16947e-006 -5.90995e-007 3.53717e-006 -33.4663 29.1734 6.94797 -2.78393e-006 9.29764e-006 2.99999 -8.03039 -4.9512 -0.697282 179.257 19.7926 -1.19402 180 7.01469e-015 178.626 174.378 26.1528 -178.761 -1.9828e-006 2.18575e-006 0.8791 -28.8833 71.5507 23.7973 8.13649 25.2327 -3.48773 -175.699 18.8794 -2.71325 4.54188e-006 -4.6773e-006 -0.746711 -4.72699 -22.4939 -0.476631 1.96685e-006 -3.53242e-006 -0.144976 18.0538 70.5843 -21.744 -8.1365 25.2327 3.48774 
46.3318 86.1824 3.40139 2.37507 1.88974 18.325 2.14319 -1.04601 1.02524 4.2957 1.9414 1.80238 4.27795 3.58347 1.73181 -12.6887 2.36108 7.47433 3.19591 14.5636 4.74715 41.5118 -4.61398 -1.49258 167.89 44.6904 -88.5595 1.25262e-005 -5.19322e-005 -9.43979e-006 20.0507 52.9638 -6.55781 -5.63958e-006 -1.2733e-005 -2.99999 8.0289 -4.95074 0.697219 -65.3964 -6.6662 4.38875 -100.533 51.6946 25.3975 1.16947e-006 -5.90995e-007 3.53717e-006 -33.4698 28.6781 6.80196 -2.78393e-006 9.29764e-006 2.99999 -8.03039 -4.9512 -0.697282 179.249 19.7879 -1.1881 180 7.01469e-015 178.626 174.38 26.1537 -178.762 -1.9828e-006 2.18575e-006 0.879204 -28.8631 71.5455 23.7884 8.13649 25.2327 -3.48773 -175.718 18.8968 -2.69387 4.54188e-006 -4.6773e-006 -0.74758 -4.72274 -22.499 -0.476217 1.96685e-006 -3.53242e-006 -0.146759 18.0661 70.5827 -21.7435 -8.1365 25.2327 3.48774 
46.3462 86.1884 3.40547 2.37028 1.89171 18.3753 2.14876 -1.05272 1.02672 4.30693 1.92816 1.80754 4.28913 3.57021 1.73676 -12.6068 2.42794 7.53042 3.10902 14.5454 4.81839 41.6032 -4.63601 -1.5194 167.535 44.7754 -88.1436 1.25262e-005 -5.19322e-005 -9.43979e-006 19.8682 53.0323 -6.50291 -5.63958e-006 -1.2733e-005 -2.99999 8.0289 -4.95074 0.697219 -65.3658 -6.67102 4.39016 -100.752 51.8439 25.2192 1.16947e-006 -5.90995e-007 3.53717e-006 -33.4762 28.1875 6.65902 -2.78393e-006 9.29764e-006 2.99999 -8.03039 -4.9512 -0.697282 179.24 19.7829 -1.18216 180 7.01469e-015 178.627 174.382 26.1545 -178.763 -1.9828e-006 2.18575e-006 0.879295 -28.8427 71.5404 23.7794 8.13649 25.2327 -3.48773 -175.738 18.914 -2.67402 4.54188e-006 -4.6773e-006 -0.748459 -4.7182 -22.5039 -0.47572 1.96685e-006 -3.53242e-006 -0.148564 18.078 70.581 -21.7429 -8.1365 25.2327 3.48774 
46.3591 86.1979 3.4073 2.36569 1.89351 18.4258 2.15438 -1.05932 1.02803 4.31827 1.91512 1.81228 4.3004 3.55716 1.74129 -12.5261 2.49447 7.58696 3.02269 14.527 4.88985 41.6929 -4.65822 -1.54621 167.18 44.8586 -87.7241 1.25262e-005 -5.19322e-005 -9.43979e-006 19.6852 53.1023 -6.44831 -5.63958e-006 -1.2733e-005 -2.99999 8.0289 -4.95074 0.697219 -65.3364 -6.67664 4.39205 -100.965 51.9894 25.0434 1.16947e-006 -5.90995e-007 3.53717e-006 -33.4852 27.7048 6.51974 -2.78393e-006 9.29764e-006 2.99999 -8.03039 -4.9512 -0.697282 179.231 19.7775 -1.17617 180 7.0147e-015 178.627 174.384 26.1553 -178.764 -1.9828e-006 2.18575e-006 0.879366 -28.822 71.5352 23.7703 8.13649 25.2327 -3.48773 -175.757 18.9308 -2.65341 4.54188e-006 -4.6773e-006 -0.749357 -4.71318 -22.5084 -0.47509 1.96685e-006 -3.53242e-006 -0.150404 18.0896 70.5793 -21.7422 -8.1365 25.2327 3.48774 
46.3748 86.1944 3.40283 2.36138 1.89506 18.4766 2.16006 -1.06576 1.02913 4.32974 1.90238 1.81645 4.31181 3.5444 1.74525 -12.447 2.56054 7.64412 2.93712 14.5086 4.96163 41.7802 -4.68068 -1.573 166.826 44.9405 -87.3009 1.25262e-005 -5.19322e-005 -9.43979e-006 19.5016 53.1744 -6.39418 -5.63958e-006 -1.2733e-005 -2.99999 8.0289 -4.95074 0.697219 -65.3085 -6.68336 4.39461 -101.169 52.1298 24.8713 1.16947e-006 -5.90995e-007 3.53717e-006 -33.4967 27.2329 6.38469 -2.78393e-006 9.29764e-006 2.99999 -8.03039 -4.9512 -0.697282 179.222 19.7718 -1.17014 180 7.0147e-015 178.628 174.387 26.1561 -178.765 -1.9828e-006 2.18575e-006 0.879409 -28.801 71.53 23.7612 8.13649 25.2327 -3.48773 -175.778 18.9471 -2.63177 4.54188e-006 -4.6773e-006 -0.750278 -4.7075 -22.5124 -0.474279 1.96685e-006 -3.53242e-006 -0.152292 18.1006 70.5774 -21.7413 -8.1365 25.2327 3.48774 
46.3957 86.1992 3.39974 2.35744 1.89631 18.5279 2.16584 -1.07202 1.02995 4.34137 1.89 1.8199 4.32341 3.53201 1.74848 -12.3698 2.62604 7.70206 2.85249 14.4899 5.03383 41.8643 -4.70346 -1.59977 166.471 45.0214 -86.8734 1.25262e-005 -5.19322e-005 -9.43979e-006 19.3171 53.2493 -6.34068 -5.63958e-006 -1.2733e-005 -2.99999 8.0289 -4.95074 0.697219 -65.2826 -6.69148 4.39802 -101.362 52.2636 24.7044 1.16947e-006 -5.90995e-007 3.53717e-006 -33.5105 26.7751 6.25441 -2.78393e-006 9.29764e-006 2.99999 -8.03039 -4.9512 -0.697282 179.213 19.7654 -1.16403 180 7.0147e-015 178.629 174.39 26.1569 -178.766 -1.9828e-006 2.18575e-006 0.879415 -28.7795 71.5247 23.7519 8.13649 25.2327 -3.48773 -175.799 18.9628 -2.60881 4.54188e-006 -4.6773e-006 -0.751231 -4.70097 -22.5157 -0.473236 1.96685e-006 -3.53242e-006 -0.154242 18.1108 70.5754 -21.7402 -8.1365 25.2327 3.48774 
46.4095 86.2018 3.40079 2.35394 1.89717 18.5797 2.17172 -1.07804 1.03043 4.35321 1.87808 1.82246 4.33521 3.52006 1.75082 -12.2951 2.69084 7.76094 2.76901 14.471 5.10652 41.9448 -4.72662 -1.62652 166.118 45.1018 -86.4413 1.25262e-005 -5.19322e-005 -9.43979e-006 19.1317 53.3274 -6.28799 -5.63958e-006 -1.2733e-005 -2.99999 8.0289 -4.95074 0.697219 -65.2592 -6.70131 4.40247 -101.543 52.3895 24.5441 1.16947e-006 -5.90995e-007 3.53717e-006 -33.5261 26.3343 6.12939 -2.78393e-006 9.29764e-006 2.99999 -8.03039 -4.9512 -0.697282 179.203 19.7584 -1.15784 180 7.0147e-015 178.629 174.393 26.1576 -178.768 -1.9828e-006 2.18575e-006 0.879378 -28.7575 71.5193 23.7425 8.13649 25.2327 -3.48773 -175.822 18.9778 -2.58425 4.54188e-006 -4.6773e-006 -0.752222 -4.69344 -22.5183 -0.471912 1.96685e-006 -3.53242e-006 -0.156265 18.1202 70.5732 -21.739 -8.1365 25.2327 3.48774 
